# xmcd
#
# Track frame offsets:
#	150
#	18927
#	33485
#	47000
#	60627
#	70485
#	82000
#	95312
#	106965
#	124479
#	136777
#	151740
#	167635
#	185225
#	197970
#	213055
#	228905
#	243887
#	256207
#	271117
#
# Disc length: 3888
#
# Revision: 2
# Processed by: cddbd v1.5.1PL0 Copyright (c) Steve Scherf et al.
# Submitted via: EasyCDDAExtractor 6.2.0.3
# Normalized: r1:DSETVAR1
#
DISCID=0f0f2e14
DTITLE=Various Artist - Line Dance Fever 9
DYEAR=1999
DGENRE=Country
TTITLE0=The Groovegrass Boyz - Walkin' After Midnight
TTITLE1=Montgomery Gentry - Hillbilly Shoes
TTITLE2=The Dean Brothers - Crazy Little Thing Called Love
TTITLE3=Ronan Hardiman - Dance Above The Rainbow
TTITLE4=Perez Prado - Mambo Number 5
TTITLE5=Coast To Coast - (Do) The Hucklebuck
TTITLE6=Sara Evans - Cryin' Game
TTITLE7=Leann Rimes - I Want To Be A Cowboys Sweetheart
TTITLE8=Danni Leigh - 29 Nights
TTITLE9=Dave Sheriff - Hearts And Flowers
TTITLE10=Sharon B - Pretend
TTITLE11=Paul Rutter - On The Tracks To Tennessee
TTITLE12=Vacquero - Bury The Shovel
TTITLE13=Brady Seals - Love You To Much
TTITLE14=JoDee Messina - Bye Bye
TTITLE15=Deborah Allen - Is It Love Yet
TTITLE16=Tim McGraw - Seventeen
TTITLE17=Trini Triggs - Horse To Mexico
TTITLE18=Newton - Love And Affection
TTITLE19=Engelbert Humperdinck - The Last Waltz
EXTD=YEAR: 1999 ID3G: 2
EXTT0=
EXTT1=
EXTT2=
EXTT3=
EXTT4=
EXTT5=
EXTT6=
EXTT7=
EXTT8=
EXTT9=
EXTT10=
EXTT11=
EXTT12=
EXTT13=
EXTT14=
EXTT15=
EXTT16=
EXTT17=
EXTT18=
EXTT19=
PLAYORDER=
